<svg width="45" height="45" viewBox="0 0 45 45" fill="none" xmlns="http://www.w3.org/2000/svg">
<path d="M24.5731 34.5026H14.5243L17.6573 19.6111H20.349L17.8734 31.7422H22.335L23.587 25.5891L31.8743 25.5837L32.0605 24.5981L35.7912 27.0661L30.9549 29.3143L31.1801 28.3294L25.8282 28.3495L24.5731 34.5026Z" fill="#89E55A"/>
<path d="M34.2602 22.349H25.504C25.7012 21.4292 25.8978 20.5091 26.094 19.5887H32.0145L32.7171 16.0818H12.0624C12.0466 16.4098 12.0307 16.7376 12.0149 17.0651L7.58545 14.6719L12.0609 12.3489V13.3207H36.0631L34.2602 22.349Z" fill="#FF0000"/>
<path d="M22.3526 3.06731C26.1991 3.06029 29.9592 4.21561 33.1462 6.38373C36.2512 8.49436 38.6821 11.4656 40.1447 14.9378C41.3972 17.9156 41.8904 21.1614 41.5795 24.3799C41.2687 27.5985 40.1636 30.6878 38.3648 33.3671C36.9748 35.4377 35.2033 37.221 33.1462 38.6201C30.6429 40.3204 27.7784 41.4062 24.7827 41.7901C21.787 42.1741 18.7437 41.8455 15.897 40.8309C13.0503 39.8163 10.4797 38.1438 8.39153 35.9479C6.30338 33.7519 4.75591 31.0937 3.8734 28.1866C2.99089 25.2795 2.79793 22.2046 3.31001 19.2088C3.8221 16.2131 5.02496 13.3799 6.822 10.937C8.61904 8.49396 10.9602 6.50921 13.6574 5.14208C16.3546 3.77494 19.3327 3.06354 22.3526 3.06499M22.3526 0C10.0074 0.00231378 0 10.0758 0 22.5023C0 34.9289 10.0074 45.0023 22.3526 45.0023C34.6977 45.0023 44.7052 34.9289 44.7052 22.5023C44.7052 10.0758 34.6977 0.00231378 22.3526 0.00231378V0Z" fill="white"/>
<path d="M12.0624 16.0818C12.0466 16.4098 12.0307 16.7376 12.0149 17.0651L7.58545 14.6719L12.0609 12.3489C12.0609 12.6728 12.0609 12.9967 12.0609 13.3207H36.0631L12.0624 16.0818Z" fill="#D80000"/>
<path d="M24.5731 34.5024H14.5243L22.335 31.7421L23.587 25.589L31.8743 25.5836L32.0605 24.5979L35.7912 27.0659L30.9549 29.3142L31.1801 28.3293L25.8282 28.3493L24.5731 34.5024Z" fill="#52CC19"/>
<path d="M25.8251 28.3493L31.8781 25.5836L32.0643 24.5979L35.795 27.0659L30.9548 29.3142L31.1801 28.3293L25.8251 28.3493Z" fill="#0DA800"/>
</svg>
