<svg width="100" height="34" viewBox="0 0 100 34" fill="none" xmlns="http://www.w3.org/2000/svg">
        <g clip-path="url(#clip0_1_211)">
          <path fill-rule="evenodd" clip-rule="evenodd"
            d="M12.9111 31.5392C13.5324 32.1606 14.3241 32.5837 15.186 32.7552C16.0479 32.9266 16.9412 32.8386 17.7531 32.5023C18.565 32.166 19.2589 31.5965 19.7471 30.8659C20.2353 30.1352 20.4959 29.2762 20.4959 28.3974C20.4959 27.5187 20.2353 26.6597 19.7471 25.929C19.2589 25.1983 18.565 24.6289 17.7531 24.2926C16.9412 23.9563 16.0479 23.8683 15.186 24.0397C14.3241 24.2111 13.5324 24.6343 12.9111 25.2557C12.5614 25.6055 12.1462 25.8829 11.6892 26.0722C11.2323 26.2615 10.7425 26.359 10.2479 26.359C9.75334 26.359 9.26358 26.2615 8.80664 26.0722C8.34969 25.8829 7.93452 25.6055 7.58482 25.2557C6.96344 24.6343 6.17175 24.2111 5.30988 24.0397C4.44801 23.8683 3.55465 23.9563 2.74279 24.2926C1.93092 24.6289 1.23701 25.1983 0.748797 25.929C0.260586 26.6597 3.8147e-06 27.5187 3.8147e-06 28.3974C3.8147e-06 29.2762 0.260586 30.1352 0.748797 30.8659C1.23701 31.5965 1.93092 32.166 2.74279 32.5023C3.55465 32.8386 4.44801 32.9266 5.30988 32.7552C6.17175 32.5837 6.96344 32.1606 7.58482 31.5392C7.93442 31.1893 8.34957 30.9116 8.80652 30.7222C9.26348 30.5328 9.75328 30.4353 10.2479 30.4353C10.7426 30.4353 11.2324 30.5328 11.6894 30.7222C12.1463 30.9116 12.5615 31.1893 12.9111 31.5392Z"
            fill="white" />
          <path
            d="M8.0759 29.1201C7.93298 29.8386 7.58022 30.4985 7.06222 31.0166C6.71827 31.3605 6.30995 31.6333 5.86056 31.8195C5.41117 32.0056 4.92952 32.1014 4.4431 32.1014C3.95668 32.1014 3.47503 32.0056 3.02564 31.8195C2.57625 31.6333 2.16793 31.3605 1.82398 31.0166C1.30598 30.4985 0.953217 29.8386 0.810303 29.1201C0.667389 28.4016 0.740743 27.6568 1.02109 26.98C1.30143 26.3032 1.77618 25.7247 2.38529 25.3177C2.99441 24.9107 3.71053 24.6935 4.4431 24.6935C5.17567 24.6935 5.89179 24.9107 6.50091 25.3177C7.11002 25.7247 7.58477 26.3032 7.86511 26.98C8.14546 27.6568 8.21881 28.4016 8.0759 29.1201Z"
            fill="#B2E500" stroke="white" stroke-width="1.47826" />
          <path fill-rule="evenodd" clip-rule="evenodd"
            d="M30.3048 13.6481C29.8922 13.2355 29.4024 12.9082 28.8633 12.6849C28.3242 12.4616 27.7465 12.3467 27.163 12.3467C26.5795 12.3467 26.0018 12.4616 25.4627 12.6849C24.9236 12.9082 24.4338 13.2355 24.0212 13.6481C23.6716 13.998 23.2565 14.2756 22.7995 14.4651C22.3426 14.6545 21.8528 14.752 21.3581 14.752C20.8635 14.752 20.3737 14.6545 19.9167 14.4651C19.4597 14.2756 19.0446 13.998 18.695 13.6481C18.0736 13.0267 17.2819 12.6036 16.4201 12.4321C15.5582 12.2607 14.6648 12.3487 13.853 12.685C13.0411 13.0213 12.3472 13.5907 11.859 14.3214C11.3708 15.0521 11.1102 15.9111 11.1102 16.7898C11.1102 17.6686 11.3708 18.5276 11.859 19.2583C12.3472 19.989 13.0411 20.5584 13.853 20.8947C14.6648 21.231 15.5582 21.319 16.4201 21.1476C17.2819 20.9761 18.0736 20.553 18.695 19.9316C19.0446 19.5817 19.4597 19.3041 19.9167 19.1146C20.3736 18.9252 20.8635 18.8277 21.3581 18.8277C21.8528 18.8277 22.3426 18.9252 22.7995 19.1146C23.2565 19.3041 23.6716 19.5817 24.0212 19.9316C24.8545 20.7649 25.9846 21.233 27.163 21.233C28.3414 21.233 29.4715 20.7649 30.3048 19.9316C31.138 19.0984 31.6061 17.9682 31.6061 16.7899C31.6061 15.6115 31.138 14.4813 30.3048 13.6481Z"
            fill="#B2E500" />
          <path fill-rule="evenodd" clip-rule="evenodd"
            d="M18.6718 19.9316C19.2927 19.3108 19.7156 18.5199 19.8873 17.6589C20.0591 16.7979 19.9718 15.9053 19.6367 15.0938C19.3015 14.2823 18.7335 13.5883 18.0042 13.0994C17.2749 12.6105 16.4172 12.3486 15.5392 12.3468C14.6612 12.345 13.8024 12.6034 13.0711 13.0893C12.3399 13.5752 11.769 14.2668 11.4305 15.0769C11.092 15.887 11.0011 16.7793 11.1692 17.641C11.3374 18.5027 11.7571 19.2953 12.3754 19.9187L12.3883 19.9316C12.8009 20.3442 13.2907 20.6715 13.8298 20.8948C14.3688 21.1181 14.9466 21.233 15.5301 21.233C16.1136 21.233 16.6913 21.1181 17.2304 20.8948C17.7695 20.6715 18.2593 20.3442 18.6718 19.9316Z"
            fill="white" />
          <path fill-rule="evenodd" clip-rule="evenodd"
            d="M12.9111 8.32385C13.7421 9.15479 14.8684 9.62274 16.0435 9.62531C17.2187 9.62787 18.347 9.16484 19.1816 8.33753L19.1953 8.32385C20.0286 7.49051 20.4966 6.36029 20.4966 5.18183C20.4965 4.00338 20.0283 2.87321 19.1949 2.03996C18.3616 1.20672 17.2314 0.738641 16.0529 0.738709C14.8745 0.738776 13.7443 1.20698 12.9111 2.04032C12.5615 2.39027 12.1463 2.66789 11.6894 2.8573C11.2324 3.04671 10.7426 3.1442 10.2479 3.1442C9.75328 3.1442 9.26348 3.04671 8.80652 2.8573C8.34956 2.66789 7.93442 2.39027 7.58482 2.04032C6.96344 1.41895 6.17175 0.995795 5.30988 0.824362C4.44801 0.652929 3.55465 0.74092 2.74279 1.07721C1.93092 1.4135 1.23701 1.98298 0.748797 2.71364C0.260586 3.4443 3.8147e-06 4.30333 3.8147e-06 5.18209C3.8147e-06 6.06085 0.260586 6.91987 0.748797 7.65053C1.23701 8.38119 1.93092 8.95068 2.74279 9.28697C3.55465 9.62325 4.44801 9.71125 5.30988 9.53981C6.17175 9.36838 6.96344 8.94522 7.58482 8.32385C7.93442 7.9739 8.34956 7.69629 8.80652 7.50688C9.26348 7.31747 9.75328 7.21998 10.2479 7.21998C10.7426 7.21998 11.2324 7.31747 11.6894 7.50688C12.1463 7.69629 12.5615 7.9739 12.9111 8.32385Z"
            fill="white" />
          <path
            d="M7.06336 7.80033L7.06225 7.80143C6.36761 8.49607 5.42549 8.88631 4.44313 8.88631C3.46077 8.88631 2.51864 8.49607 1.82401 7.80143C1.12938 7.1068 0.739134 6.16467 0.739134 5.18231C0.739134 4.19995 1.12938 3.25783 1.82401 2.56319L1.83107 2.55613L1.83794 2.54888L1.84315 2.54338C2.53859 1.85471 3.47846 1.46915 4.45746 1.47123C4.9439 1.47226 5.42539 1.56909 5.87441 1.7562C6.32344 1.94331 6.73122 2.21702 7.07446 2.56173C7.76767 3.25788 8.15594 4.2009 8.15386 5.18332C8.15178 6.16575 7.75951 7.10712 7.06336 7.80033Z"
            fill="#B2E500" stroke="white" stroke-width="1.47826" />
          <path
            d="M44.1074 4.37976H49.2044C52.0004 4.37976 54.2868 6.65155 54.2868 9.46216C54.2868 10.7146 53.8354 11.865 53.0781 12.7533C52.9907 12.8553 52.9033 12.9718 52.7868 13.0737C51.8694 13.9912 50.6024 14.5591 49.2044 14.5591H44.1074V4.37976ZM45.9132 6.20011V12.7533H49.2044C50.9956 12.7533 52.4665 11.2825 52.4665 9.46216C52.4665 7.67094 50.9956 6.20011 49.2044 6.20011H45.9132ZM58.4926 6.18554C57.9829 6.18554 57.5606 6.60786 57.5606 7.13212V8.06413H64.1138V9.88448H57.5606V11.8068C57.5606 12.331 57.9829 12.7533 58.4926 12.7533H65.9341V14.5737H58.4926C56.9781 14.5737 55.7548 13.3358 55.7548 11.8068V7.13212C55.7548 5.60303 56.9781 4.3652 58.4926 4.3652H65.9341V6.18554H58.4926ZM70.4603 12.7388H75.8048V14.5591H70.6351C70.1254 14.5591 69.6448 14.4426 69.2079 14.2242C68.5671 13.9184 68.0429 13.3941 67.7371 12.7388C67.5186 12.3165 67.4021 11.8359 67.4021 11.3116V4.3652H69.2079V11.5009C69.2953 12.1417 69.805 12.666 70.4603 12.7388ZM74.5413 4.37976H84.7206V6.20011H80.5411V14.5737H78.7208V6.20011H74.5413V4.37976ZM92.1704 12.7388L93.1024 14.5737H91.0636L90.1316 12.7388L87.9035 8.38451L85.69 12.7388L84.7579 14.5737H82.7192L83.6366 12.7388L87.9035 4.3652L92.1704 12.7388ZM44.1074 19.3798H54.2868V21.2001H50.1073V29.5737H48.287V21.2001H44.1074V19.3798ZM62.5265 24.8554L63.9973 27.7388L64.9147 29.5737H62.876L61.9439 27.7388L60.9682 25.8311L60.9246 25.7582C60.6187 25.234 60.0362 24.8845 59.3809 24.8845H57.5606V29.5737H55.7548V19.3652H62.177C62.9488 19.3652 63.6332 19.6856 64.1284 20.1807C64.6235 20.6758 64.9293 21.3749 64.9293 22.1321C64.9293 23.2389 64.274 24.2 63.3128 24.6369C63.0653 24.7534 62.8031 24.8262 62.5265 24.8554ZM57.5606 23.0641H62.177C62.308 23.0641 62.4391 23.035 62.5556 22.9768C62.9051 22.8311 63.109 22.4962 63.109 22.1321C63.109 21.7972 62.9342 21.5642 62.8323 21.4622C62.7158 21.3457 62.4973 21.1855 62.177 21.1855H57.5606V23.0641ZM75.2611 27.7388L76.1931 29.5737H74.1543L73.2223 27.7388L70.9942 23.3845L68.7807 27.7388L67.8487 29.5737H65.8099L66.7273 27.7388L70.9942 19.3652L75.2611 27.7388ZM82.1839 19.3798C84.9799 19.3798 87.2663 21.6515 87.2663 24.4622C87.2663 25.7146 86.8148 26.865 86.0576 27.7533C85.9702 27.8553 85.8828 27.9718 85.7663 28.0737C84.8488 28.9912 83.5819 29.5591 82.1839 29.5591H77.0869V19.3798H82.1839ZM82.1839 27.7533C83.9751 27.7533 85.4459 26.2825 85.4459 24.4622C85.4459 22.6564 83.9751 21.1855 82.1839 21.1855H78.8927V27.7533H82.1839ZM91.472 21.1855C90.9623 21.1855 90.54 21.6079 90.54 22.1321V23.0641H97.0933V24.8845H90.54V26.8068C90.54 27.331 90.9623 27.7533 91.472 27.7533H98.9136V29.5737H91.472C89.9575 29.5737 88.7343 28.3358 88.7343 26.8068V22.1321C88.7343 20.603 89.9575 19.3652 91.472 19.3652H98.9136V21.1855H91.472Z"
            fill="white" />
        </g>
        <defs>
          <clipPath id="clip0_1_211">
            <rect width="99.6552" height="34" fill="white" />
          </clipPath>
        </defs>
      </svg>