<svg width="18" height="18" viewBox="0 0 18 18" fill="none" xmlns="http://www.w3.org/2000/svg">
  <path d="M3.65304 14.9507C4.1397 13.8042 5.27594 13 6.6 13H11.4C12.7241 13 13.8603 13.8042 14.347 14.9507M12.2 7C12.2 8.76731 10.7673 10.2 9 10.2C7.23269 10.2 5.8 8.76731 5.8 7C5.8 5.23269 7.23269 3.8 9 3.8C10.7673 3.8 12.2 5.23269 12.2 7ZM17 9C17 13.4183 13.4183 17 9 17C4.58172 17 1 13.4183 1 9C1 4.58172 4.58172 1 9 1C13.4183 1 17 4.58172 17 9Z" stroke="#B2E500" stroke-width="1.5" stroke-linecap="round" stroke-linejoin="round" />
</svg>